<svg preserveAspectRatio="none" overflow="visible" style="display: block;" width="89.6102" height="32" viewBox="0 0 89.6102 32" fill="none" xmlns="http://www.w3.org/2000/svg">
<g id="Nafas">
<path id="Vector" d="M81.6586 16.677C81.6586 17.2788 81.8162 17.8232 82.1314 18.3103C82.4752 18.7688 82.905 19.1986 83.4208 19.5998C83.9366 19.9723 84.4954 20.3448 85.0971 20.7173C85.8135 21.1185 86.5155 21.5483 87.2032 22.0068C87.8909 22.4366 88.464 22.9667 88.9225 23.5971C89.381 24.2275 89.6102 25.0441 89.6102 26.0471C89.6102 26.964 89.3666 27.8666 88.8795 28.7549C88.421 29.6146 87.719 30.3166 86.7734 30.861C85.8278 31.4055 84.6386 31.6777 83.2059 31.6777C82.4895 31.6777 81.7732 31.5917 81.0568 31.4198C80.3404 31.2765 79.5668 30.9756 78.7358 30.5172C78.6785 30.4599 78.6212 30.3882 78.5639 30.3023C78.5065 30.2163 78.4779 30.116 78.4779 30.0014L78.3919 25.7462C78.3919 25.6602 78.4636 25.6172 78.6068 25.6172C78.7788 25.5886 78.8791 25.6029 78.9077 25.6602C79.2229 26.5772 79.6671 27.4368 80.2402 28.2391C80.8132 29.0128 81.458 29.6432 82.1743 30.1303C82.9194 30.5888 83.6644 30.818 84.4094 30.818C84.9825 30.818 85.4553 30.6461 85.8278 30.3023C86.2003 29.9298 86.3866 29.371 86.3866 28.626C86.3866 27.8236 86.2003 27.1646 85.8278 26.6488C85.4839 26.1044 85.0398 25.6459 84.4954 25.2734C83.9509 24.8722 83.3922 24.514 82.8191 24.1988C82.16 23.8263 81.501 23.4395 80.8419 23.0383C80.1828 22.6372 79.6384 22.1357 79.2086 21.534C78.7788 20.9036 78.5639 20.0869 78.5639 19.084C78.5639 17.8805 78.8647 16.9206 79.4665 16.2042C80.0682 15.4878 80.8419 14.9721 81.7875 14.6569C82.7618 14.3417 83.7647 14.1841 84.7962 14.1841C85.4266 14.1841 85.9997 14.227 86.5155 14.313C87.0599 14.399 87.676 14.5709 88.3637 14.8288C88.6216 14.9147 88.7506 15.0723 88.7506 15.3016C88.7506 15.8747 88.7362 16.4764 88.7076 17.1068C88.6789 17.7086 88.6646 18.382 88.6646 19.127C88.6646 19.2129 88.5786 19.2559 88.4067 19.2559C88.2348 19.2559 88.1488 19.2129 88.1488 19.127C88.1488 18.5825 87.9196 17.9951 87.4611 17.3647C87.0313 16.7343 86.4582 16.1899 85.7418 15.7314C85.0255 15.2443 84.2518 15.0007 83.4208 15.0007C83.0196 15.0007 82.6185 15.101 82.2173 15.3016C81.8448 15.5022 81.6586 15.9606 81.6586 16.677Z" fill="white"/>
<path id="Vector_2" d="M73.0666 31.4628C72.9519 31.5201 72.8087 31.5487 72.6367 31.5487C72.121 31.5487 71.6052 31.2049 71.0894 30.5172C70.5736 29.8295 70.3157 28.8409 70.3157 27.5514V20.2445C70.3157 18.4393 70.1724 17.1211 69.8859 16.2902C69.5994 15.4305 69.0836 15.0007 68.3385 15.0007C67.6222 15.0007 67.0777 15.2299 66.7052 15.6884C66.3614 16.1182 66.1178 16.6054 65.9745 17.1498C65.8599 17.6942 65.7883 18.1527 65.7596 18.5252C65.6737 19.4135 65.4158 20.0439 64.986 20.4164C64.5561 20.7603 63.983 20.9322 63.2667 20.9322C62.5217 20.9322 61.9916 20.7746 61.6764 20.4594C61.3612 20.1442 61.2036 19.7574 61.2036 19.2989C61.2036 18.6112 61.5044 17.9665 62.1062 17.3647C62.7366 16.7343 63.5246 16.1899 64.4702 15.7314C65.4158 15.2443 66.39 14.8718 67.3929 14.6139C68.4245 14.3273 69.3271 14.1841 70.1008 14.1841C71.2756 14.1841 72.2786 14.5566 73.1095 15.3016C73.9405 16.0466 74.356 17.2644 74.356 18.955V26.5628C74.356 27.3938 74.4993 28.0386 74.7858 28.497C75.101 28.9555 75.5308 29.1847 76.0753 29.1847C76.4764 29.1847 76.8919 29.0844 77.3218 28.8839C77.4364 28.8266 77.5223 28.8839 77.5797 29.0558C77.6656 29.1991 77.637 29.2994 77.4937 29.3567L73.0666 31.4628ZM64.814 31.5058C63.5532 31.5058 62.6076 31.2335 61.9772 30.6891C61.3755 30.116 61.0746 29.3567 61.0746 28.4111C61.0746 27.4655 61.3325 26.7491 61.8483 26.262C62.3641 25.7462 63.0374 25.345 63.8684 25.0585C64.6994 24.7433 65.5591 24.4281 66.4473 24.1129L70.7455 22.5225L70.9175 23.1673L68.4675 24.2848C68.2383 24.3708 67.9087 24.514 67.4789 24.7146C67.0491 24.8865 66.6623 25.1588 66.3184 25.5313C65.9745 25.8751 65.8026 26.3766 65.8026 27.0356C65.8026 27.7807 66.0462 28.3394 66.5333 28.7119C67.0204 29.0558 67.5076 29.2277 67.9947 29.2277C68.2239 29.2277 68.4388 29.1991 68.6394 29.1418C68.8687 29.0844 69.1265 28.9555 69.4131 28.7549L71.5622 27.2935L71.6052 27.9812L68.5964 30.1303C67.966 30.6175 67.3643 30.9756 66.7912 31.2049C66.2181 31.4055 65.5591 31.5058 64.814 31.5058Z" fill="white"/>
<path id="Vector_3" d="M48.2794 31.2049C48.1648 31.2049 48.1075 31.1189 48.1075 30.947C48.1075 30.7751 48.1648 30.6891 48.2794 30.6891C49.3683 30.6891 50.0703 30.5028 50.3855 30.1303C50.7007 29.7578 50.8583 28.9555 50.8583 27.7234V18.0524C50.8583 17.422 50.7724 16.9636 50.6004 16.677C50.4285 16.3618 50.142 16.1612 49.7408 16.0753C49.3396 15.9606 48.7952 15.9033 48.1075 15.9033C48.0215 15.9033 47.9785 15.7744 47.9785 15.5165C47.9785 15.2586 48.0215 15.1297 48.1075 15.1297C49.1104 15.1297 49.7981 15.0007 50.1706 14.7428C50.5431 14.4563 50.7437 13.9548 50.7724 13.2385C50.9156 8.48179 51.8183 5.08622 53.4802 3.05174C55.1422 1.01727 57.5922 3.05176e-05 60.8301 3.05176e-05C62.4348 3.05176e-05 63.6813 0.21494 64.5695 0.644759C65.4578 1.07458 65.902 1.70498 65.902 2.53596C65.902 3.22367 65.6728 3.75378 65.2143 4.12629C64.7558 4.47015 64.2544 4.64207 63.7099 4.64207C62.9362 4.64207 62.3918 4.45582 62.0766 4.08331C61.7901 3.68215 61.5465 3.25233 61.3459 2.79385C61.1453 2.33538 60.9018 1.91989 60.6152 1.54738C60.3573 1.17487 59.8702 0.988614 59.1538 0.988614C57.9217 0.988614 56.9044 1.86258 56.1021 3.61051C55.2998 5.35844 54.8986 8.26688 54.8986 12.3358V27.7234C54.8986 28.5543 54.9846 29.1847 55.1565 29.6146C55.3284 30.0444 55.6866 30.3309 56.2311 30.4742C56.7755 30.6175 57.6065 30.6891 58.724 30.6891C58.8386 30.6891 58.8959 30.7751 58.8959 30.947C58.8959 31.1189 58.8386 31.2049 58.724 31.2049C57.7211 31.2049 56.7325 31.1906 55.7583 31.1619C54.8127 31.1332 53.8384 31.1189 52.8355 31.1189C52.0045 31.1189 51.1879 31.1332 50.3855 31.1619C49.6118 31.1906 48.9098 31.2049 48.2794 31.2049ZM59.4977 16.806C58.3802 16.5481 57.3056 16.3761 56.274 16.2902C55.2711 16.1755 54.1966 16.1182 53.0504 16.1182V15.0007C54.1393 15.0007 55.2138 14.9577 56.274 14.8718C57.3343 14.7858 58.4518 14.6855 59.6266 14.5709C59.7126 14.5709 59.7842 14.6855 59.8415 14.9147C59.8989 15.1153 59.9275 15.3446 59.9275 15.6025C59.9275 15.889 59.8702 16.1755 59.7556 16.4621C59.6696 16.72 59.5837 16.8346 59.4977 16.806Z" fill="white"/>
<path id="Vector_4" d="M43.5988 31.4628C43.4841 31.5201 43.3409 31.5487 43.1689 31.5487C42.6532 31.5487 42.1374 31.2049 41.6216 30.5172C41.1058 29.8295 40.8479 28.8409 40.8479 27.5514V20.2445C40.8479 18.4393 40.7046 17.1211 40.4181 16.2902C40.1316 15.4305 39.6158 15.0007 38.8708 15.0007C38.1544 15.0007 37.61 15.2299 37.2374 15.6884C36.8936 16.1182 36.65 16.6054 36.5067 17.1498C36.3921 17.6942 36.3205 18.1527 36.2918 18.5252C36.2059 19.4135 35.948 20.0439 35.5182 20.4164C35.0883 20.7603 34.5153 20.9322 33.7989 20.9322C33.0539 20.9322 32.5238 20.7746 32.2086 20.4594C31.8934 20.1442 31.7358 19.7574 31.7358 19.2989C31.7358 18.6112 32.0366 17.9665 32.6384 17.3647C33.2688 16.7343 34.0568 16.1899 35.0024 15.7314C35.948 15.2443 36.9222 14.8718 37.9251 14.6139C38.9567 14.3273 39.8593 14.1841 40.633 14.1841C41.8078 14.1841 42.8108 14.5566 43.6417 15.3016C44.4727 16.0466 44.8882 17.2644 44.8882 18.955V26.5628C44.8882 27.3938 45.0315 28.0386 45.318 28.497C45.6332 28.9555 46.0631 29.1847 46.6075 29.1847C47.0087 29.1847 47.4241 29.0844 47.854 28.8839C47.9686 28.8266 48.0545 28.8839 48.1119 29.0558C48.1978 29.1991 48.1692 29.2994 48.0259 29.3567L43.5988 31.4628ZM35.3462 31.5058C34.0854 31.5058 33.1398 31.2335 32.5094 30.6891C31.9077 30.116 31.6068 29.3567 31.6068 28.4111C31.6068 27.4655 31.8647 26.7491 32.3805 26.262C32.8963 25.7462 33.5697 25.345 34.4006 25.0585C35.2316 24.7433 36.0913 24.4281 36.9795 24.1129L41.2777 22.5225L41.4497 23.1673L38.9997 24.2848C38.7705 24.3708 38.4409 24.514 38.0111 24.7146C37.5813 24.8865 37.1945 25.1588 36.8506 25.5313C36.5067 25.8751 36.3348 26.3766 36.3348 27.0356C36.3348 27.7807 36.5784 28.3394 37.0655 28.7119C37.5526 29.0558 38.0398 29.2277 38.5269 29.2277C38.7561 29.2277 38.971 29.1991 39.1716 29.1418C39.4009 29.0844 39.6588 28.9555 39.9453 28.7549L42.0944 27.2935L42.1374 27.9812L39.1286 30.1303C38.4982 30.6175 37.8965 30.9756 37.3234 31.2049C36.7503 31.4055 36.0913 31.5058 35.3462 31.5058Z" fill="white"/>
<path id="Vector_5" d="M4.59906 25.7462V5.32976L5.88852 5.41573V25.7462C5.88852 27.2649 6.20372 28.4684 6.83412 29.3566C7.46452 30.2449 8.33849 30.6891 9.45602 30.6891C9.51333 30.6891 9.54198 30.775 9.54198 30.947C9.54198 31.1189 9.51333 31.2049 9.45602 31.2049C8.82562 31.2049 8.16656 31.1905 7.47885 31.1619C6.81979 31.1332 6.0891 31.1189 5.28677 31.1189C4.42714 31.1189 3.58182 31.1332 2.75084 31.1619C1.94851 31.1905 1.20349 31.2049 0.515783 31.2049C0.429819 31.2049 0.386837 31.1189 0.386837 30.947C0.386837 30.775 0.429819 30.6891 0.515783 30.6891C1.77659 30.6891 2.76517 30.2449 3.48153 29.3566C4.22655 28.4684 4.59906 27.2649 4.59906 25.7462ZM26.5198 31.8496C26.5198 31.9356 26.4482 31.9785 26.3049 31.9785C26.1903 32.0072 26.1043 32.0072 26.047 31.9785L4.85695 7.8657C3.82539 6.69086 2.95142 5.90286 2.23506 5.50169C1.51869 5.07187 0.802329 4.85696 0.0859638 4.85696C0.0286546 4.85696 0 4.771 0 4.59907C0 4.42715 0.0286546 4.34118 0.0859638 4.34118C0.659056 4.34118 1.24648 4.35551 1.84822 4.38416C2.44997 4.41282 3.00873 4.42715 3.52452 4.42715C4.55608 4.42715 5.48736 4.41282 6.31834 4.38416C7.14932 4.35551 7.79405 4.34118 8.25252 4.34118C8.62503 4.34118 8.89725 4.51311 9.06918 4.85696C9.26976 5.17216 9.71391 5.74526 10.4016 6.57624L26.176 24.7576L26.5198 31.8496ZM26.5198 9.84286V31.8496L25.2734 30.5601V9.84286C25.2734 8.32417 24.9582 7.12068 24.3278 6.23238C23.6974 5.31544 22.8234 4.85696 21.7059 4.85696C21.6485 4.85696 21.6199 4.771 21.6199 4.59907C21.6199 4.42715 21.6485 4.34118 21.7059 4.34118C22.3363 4.34118 22.981 4.36984 23.64 4.42715C24.3278 4.4558 25.0728 4.47013 25.8751 4.47013C26.6488 4.47013 27.4081 4.4558 28.1531 4.42715C28.8982 4.36984 29.5859 4.34118 30.2163 4.34118C30.2736 4.34118 30.3022 4.42715 30.3022 4.59907C30.3022 4.771 30.2736 4.85696 30.2163 4.85696C29.0701 4.85696 28.1675 5.31544 27.5084 6.23238C26.8494 7.12068 26.5198 8.32417 26.5198 9.84286Z" fill="white"/>
</g>
</svg>
